<svg xmlns="http://www.w3.org/2000/svg" width="100.004" height="100" viewBox="0 0 100.004 100"><path d="M50.008,26.6a25.6,25.6,0,1,0,18.138,7.5,25.64,25.64,0,0,0-18.138-7.5Zm0,42.31A16.669,16.669,0,1,1,66.672,52.241,16.67,16.67,0,0,1,50.008,68.908ZM82.669,25.55a5.966,5.966,0,1,1-1.747-4.232A5.978,5.978,0,0,1,82.669,25.55Zm16.979,6.07c-.38-8.01-2.2-15.107-8.076-20.953S78.631,2.992,70.622,2.59c-8.254-.468-33-.468-41.252,0-7.986.38-15.081,2.2-20.949,8.056S.748,23.586.346,31.6c-.468,8.256-.468,33,0,41.26.38,8.01,2.2,15.107,8.076,20.953s12.941,7.676,20.949,8.078c8.254.468,33,.468,41.252,0,8-.38,15.1-2.2,20.949-8.078s7.674-12.943,8.076-20.953c.468-8.256.468-32.981,0-41.238Zm-10.664,50.1a16.875,16.875,0,0,1-9.5,9.506c-6.582,2.61-22.2,2-29.471,2s-22.913.58-29.471-2a16.875,16.875,0,0,1-9.5-9.506c-2.61-6.582-2-22.2-2-29.477s-.58-22.917,2-29.477a16.875,16.875,0,0,1,9.5-9.506c6.582-2.61,22.2-2,29.471-2s22.913-.58,29.471,2a16.875,16.875,0,0,1,9.5,9.506c2.61,6.582,2,22.2,2,29.477S91.593,75.164,88.983,81.717Z" transform="translate(0.005 -2.239)"/></svg>