<svg xmlns="http://www.w3.org/2000/svg" width="100" height="100" viewBox="0 0 100 100"><path d="M89.286,2.25H10.714A10.718,10.718,0,0,0,0,12.964V91.536A10.718,10.718,0,0,0,10.714,102.25H89.286A10.718,10.718,0,0,0,100,91.536V12.964A10.718,10.718,0,0,0,89.286,2.25ZM61.9,87.9c-1.874.334-2.566-.826-2.566-1.786,0-1.2.044-7.366.044-12.344a8.7,8.7,0,0,0-2.522-6.852C65.112,66,73.818,64.862,73.818,50.6A11.46,11.46,0,0,0,70,41.892a13.96,13.96,0,0,0-.38-10.044c-3.1-.96-10.2,4-10.2,4a35.114,35.114,0,0,0-18.572,0s-7.1-4.956-10.2-4a13.852,13.852,0,0,0-.38,10.044A11.21,11.21,0,0,0,26.786,50.6c0,14.2,8.326,15.4,16.584,16.316A8.09,8.09,0,0,0,41,71.892a7.832,7.832,0,0,1-10.782-3.1,7.776,7.776,0,0,0-5.692-3.816c-3.616-.044-.246,2.276-.246,2.276,2.41,1.116,4.108,5.4,4.108,5.4,2.166,6.63,12.522,4.4,12.522,4.4,0,3.1.044,8.148.044,9.062,0,.96-.67,2.12-2.566,1.786a37.032,37.032,0,0,1-25.04-35.336,35.422,35.422,0,0,1,36.16-36.048C70,16.514,86.6,32.072,86.6,52.562A36.692,36.692,0,0,1,61.9,87.9ZM40,74.258c-.424.09-.826-.09-.87-.38-.044-.334.246-.624.67-.714.424-.044.826.134.87.424S40.446,74.17,40,74.258Zm-2.12-.2c0,.29-.334.536-.782.536-.492.044-.826-.2-.826-.536,0-.29.334-.536.782-.536.424-.044.826.2.826.536Zm-3.058-.246c-.09.29-.536.424-.916.29-.424-.09-.714-.424-.624-.714s.536-.424.916-.334c.444.134.736.468.624.758Zm-2.746-1.2c-.2.246-.626.2-.96-.134-.334-.29-.424-.714-.2-.916.2-.246.626-.2.96.134.29.286.4.732.2.912ZM30.044,70.58c-.2.134-.58,0-.826-.334s-.246-.714,0-.87c.246-.2.626-.044.826.29a.654.654,0,0,1,0,.916ZM28.6,68.41c-.2.2-.536.09-.782-.134-.246-.29-.29-.624-.09-.782.2-.2.536-.09.782.134C28.75,67.92,28.8,68.254,28.6,68.41Zm-1.5-1.652a.42.42,0,0,1-.624.09c-.29-.134-.424-.38-.334-.58a.526.526,0,0,1,.624-.09c.284.156.418.4.328.572Z" transform="translate(0 -2.25)"/></svg>