<svg xmlns="http://www.w3.org/2000/svg" width="100" height="99.99" viewBox="0 0 100 99.99"><path d="M92.858,2.25H7.12A7.174,7.174,0,0,0,0,9.46V95.04a7.174,7.174,0,0,0,7.12,7.2H92.858A7.2,7.2,0,0,0,100,95.04V9.46a7.2,7.2,0,0,0-7.142-7.21ZM30.224,87.964H15.4V40.242H30.244V87.964Zm-7.412-54.24a8.6,8.6,0,1,1,8.6-8.6A8.6,8.6,0,0,1,22.812,33.724Zm62.97,54.24H70.96V64.75c0-5.536-.112-12.656-7.7-12.656-7.724,0-8.906,6.026-8.906,12.254V87.964H39.532V40.242H53.75V46.75h.2A15.612,15.612,0,0,1,68,39.058c15,0,17.8,9.888,17.8,22.746Z" transform="translate(0 -2.25)"/></svg>