<?xml version="1.0" encoding="utf-8"?>
<!-- Generator: Adobe Illustrator 19.2.1, SVG Export Plug-In . SVG Version: 6.00 Build 0)  -->
<svg version="1.1" id="layer" xmlns="http://www.w3.org/2000/svg" xmlns:xlink="http://www.w3.org/1999/xlink" x="0px" y="0px"
	 viewBox="0 0 652 652" style="enable-background:new 0 0 652 652;" xml:space="preserve">
<style type="text/css">
	.st0{fill:#747575;}
	.st1{fill:#2183ED;}
</style>
<path class="st0" d="M93.4,404.7c0,15-2.9,27.3-9,36.8c-6,9.5-13.4,16.5-22,20.7c-8.6,4.2-16.8,6.4-24.7,6.4l-16.8-41.4
	c6.4-2.2,11-4.9,14.1-8.4c2.9-3.5,4.9-8.2,5.9-14.1c0.9-6,1.5-14.5,1.5-25.3V241.8h51.1V404.7z M94.5,200.8c0,7.3-2.6,13.5-7.9,18.7
	c-5.3,5.1-11.5,7.7-18.9,7.7c-4.9,0-9.3-1.1-13.4-3.5s-7.1-5.5-9.5-9.5c-2.4-4-3.5-8.4-3.5-13.4c0-7.1,2.6-13.4,7.7-18.7
	c4.9-5.3,11.3-7.9,18.7-7.9c7.3,0,13.5,2.6,18.9,7.9C91.7,187.2,94.5,193.5,94.5,200.8"/>
<polygon class="st0" points="468.6,241.8 403.1,395.7 365.4,395.7 301.3,241.8 356,241.8 385.9,322.3 419,241.8 "/>
<path class="st0" d="M620.5,331.8H519.1c2,9.3,6.8,17,14.6,23.1c7.7,6,16.5,9,26.4,9c17.2,0,36.1-5.1,56.9-15.4v33.7
	c-7.5,4.2-16.5,7.9-27.1,11.3c-10.6,3.3-24.2,5.1-40.5,5.1c-17.8,0-32.8-3.5-45.2-10.6c-12.4-7.1-21.8-16.7-28-28.7
	c-6.2-12.1-9.3-25.8-9.3-41.2c0-15.2,3.1-28.7,9.3-40.6c6.2-11.9,15.6-21.4,28-28.2c12.4-6.8,27.5-10.3,45.2-10.3
	c11.7,0,23.1,2.7,33.9,8.1c11,5.3,19.8,14.3,26.9,26.5c7,12.3,10.6,28,10.6,47.4v10.8H620.5z M572.8,304.9c0-9.9-2.4-17.8-7-23.6
	c-4.6-5.9-11.2-8.8-19.8-8.8c-8.4,0-15.4,2.9-20.7,9c-5.3,6-7.9,13.7-7.9,23.4H572.8z"/>
<path class="st1" d="M116.8,316.8c0-29.7,3.7-46.3,5.3-55.3c1.6-9,10.8-17.8,19.8-19.8c8.6-1.8,33.3-4.9,63-4.9s55.6,3.1,64.2,4.9
	c9,2,17.9,10.8,19.8,19.8c1.6,9,4.4,25.6,4.4,55.3s-3.3,45.4-4.9,54.4c-1.6,9-10.8,17.8-19.8,19.8c-8.4,1.8-33.9,4.8-63,4.9l0,0
	l-49.4,38.4v-41.2c-6.6-0.7-11.7-1.6-14.8-2.2c-9-2-17.9-10.8-19.8-19.8C119.9,362.2,116.8,346.5,116.8,316.8 M262.5,267.6
	c-6.4-1.3-29.1-4-57.7-4c-27.3,0-49.2,2.7-56.4,4c-0.2,0.2-0.4,0.2-0.5,0.4c0,0.2,0,0.4,0,0.4c-1.6,8.6-4.6,23.2-4.6,48.5
	c0,25.4,2.6,39.4,4.2,47.8c0.2,0.2,0.4,0.4,0.5,0.4c7,1.5,29.1,4,56.4,4c28.6,0,51.1-2.9,57.7-4c0.2-0.2,0.4-0.2,0.5-0.4
	c1.6-8.4,4.2-22.3,4.2-47.8c0-24.9-2-39.7-3.7-48.9C262.7,267.8,262.5,267.8,262.5,267.6"/>
</svg>
