<svg id="Layer_1" data-name="Layer 1" xmlns="http://www.w3.org/2000/svg" xmlns:xlink="http://www.w3.org/1999/xlink" viewBox="0 0 765 363.5"><defs><style>.cls-1{fill:none;}.cls-2{fill:#fff;stroke:#231f20;stroke-miterlimit:10;stroke-width:5px;}.cls-3{clip-path:url(#clip-path);}.cls-4{fill:#231f20;}.cls-5{font-size:132.88px;fill:#1c75bc;font-family:MyriadPro-Regular, Myriad Pro;letter-spacing:0.05em;}.cls-6{letter-spacing:0.03em;}.cls-7{letter-spacing:0.04em;}.cls-8{letter-spacing:0.04em;}.cls-9{letter-spacing:0.04em;}.cls-10{letter-spacing:0.04em;}.cls-11{letter-spacing:0.03em;}.cls-12{letter-spacing:0.06em;}</style><clipPath id="clip-path" transform="translate(-17.5 -17.5)"><rect class="cls-1" x="305.9" y="33" width="188.1" height="175"/></clipPath></defs><rect class="cls-2" x="2.5" y="2.5" width="760" height="358.5"/><g class="cls-3"><rect class="cls-4" x="339.19" y="24.25" width="18.81" height="157.5"/><polygon class="cls-4" points="436.79 24.25 416.32 24.25 340.9 174.73 357.95 182.13 437.02 24.36 436.79 24.25"/><polygon class="cls-4" points="437.53 181.75 395.52 133.49 386.68 151.13 413.32 181.75 437.53 181.75"/><polygon class="cls-4" points="386.21 56.55 386.21 24.25 371.17 24.25 371.17 86.58 386.21 56.55"/></g><text class="cls-5" transform="translate(57.36 315.58)">K<tspan class="cls-6" x="78.52" y="0">E</tspan><tspan class="cls-7" x="147.7" y="0">R</tspan><tspan class="cls-8" x="224.99" y="0">N</tspan><tspan class="cls-9" x="318.22" y="0">O</tspan><tspan class="cls-10" x="415.49" y="0">D</tspan><tspan class="cls-11" x="509.43" y="0">L</tspan><tspan class="cls-12" x="576.38" y="0">E</tspan></text></svg>